<?xml version="1.0" standalone="no"?>
<!DOCTYPE svg PUBLIC "-//W3C//DTD SVG 20010904//EN"
 "http://www.w3.org/TR/2001/REC-SVG-20010904/DTD/svg10.dtd">
<svg version="1.0" xmlns="http://www.w3.org/2000/svg"
 width="267.000000pt" height="267.000000pt" viewBox="0 0 267.000000 267.000000"
 preserveAspectRatio="xMidYMid meet">
<metadata>
Created by potrace 1.14, written by Peter Selinger 2001-2017
</metadata>
<g transform="translate(0.000000,267.000000) scale(0.100000,-0.100000)"
fill="#000000" stroke="none">
<path d="M1405 2388 c-68 -47 -58 -38 -160 -138 -126 -122 -193 -230 -244
-391 -30 -95 -33 -118 -36 -306 -1 -114 3 -205 13 -268 8 -53 12 -98 9 -101
-12 -12 -89 84 -121 151 -30 60 -71 212 -65 241 1 5 1 35 0 68 l-1 59 -40 -44
c-74 -82 -169 -289 -195 -424 -16 -81 -18 -322 -4 -410 49 -303 324 -598 617
-661 100 -21 229 -27 322 -14 327 45 625 332 684 658 14 78 15 312 1 381 -10
52 -54 168 -82 220 -69 125 -181 245 -339 362 -173 128 -262 227 -299 334 -23
65 -28 226 -8 273 8 19 13 38 11 42 -2 5 -30 -10 -63 -32z m232 -838 c160 -72
300 -239 343 -409 13 -50 17 -177 8 -236 -45 -282 -297 -499 -583 -504 -102
-2 -200 21 -294 68 -63 32 -164 118 -155 132 3 5 9 7 14 4 14 -9 133 34 205
74 117 66 212 175 265 305 12 31 27 56 32 56 5 0 7 -34 4 -83 -7 -110 -14
-147 -37 -214 -10 -31 -19 -58 -19 -60 0 -20 106 75 157 142 93 122 147 322
119 445 -4 14 -8 37 -11 51 -9 51 -47 136 -87 196 -15 23 -28 44 -28 47 0 11
25 6 67 -14z"/>
</g>
</svg>
